<svg width="14" height="14" viewBox="0 0 14 14" version="1.1" xmlns="http://www.w3.org/2000/svg" xmlns:xlink="http://www.w3.org/1999/xlink">
<title>hide_window_icon_light</title>
<desc>Created using Figma</desc>
<g id="Canvas" transform="translate(-19246 905)">
<g id="hide_window_icon_light">
<g id="Path 2">
<use xlink:href="#path0_stroke" transform="translate(19247 -903.926)" fill="#000000"/>
</g>
<g id="Path 2">
<use xlink:href="#path1_stroke" transform="translate(19247 -903.926)" fill="#000000"/>
</g>
</g>
</g>
<defs>
<path id="path0_stroke" d="M -0.424264 11.6234C -0.658579 11.8577 -0.658579 12.2376 -0.424264 12.4719C -0.18995 12.7063 0.18995 12.7063 0.424264 12.4719L -0.424264 11.6234ZM 12.4719 0.424264C 12.7063 0.18995 12.7063 -0.18995 12.4719 -0.424264C 12.2376 -0.658579 11.8577 -0.658579 11.6234 -0.424264L 12.4719 0.424264ZM 0.424264 12.4719L 12.4719 0.424264L 11.6234 -0.424264L -0.424264 11.6234L 0.424264 12.4719Z"/>
<path id="path1_stroke" d="M 0.424264 -0.424264C 0.18995 -0.658579 -0.18995 -0.658579 -0.424264 -0.424264C -0.658579 -0.18995 -0.658579 0.18995 -0.424264 0.424264L 0.424264 -0.424264ZM 11.6234 12.4719C 11.8577 12.7063 12.2376 12.7063 12.4719 12.4719C 12.7063 12.2376 12.7063 11.8577 12.4719 11.6234L 11.6234 12.4719ZM -0.424264 0.424264L 11.6234 12.4719L 12.4719 11.6234L 0.424264 -0.424264L -0.424264 0.424264Z"/>
</defs>
</svg>
